<?xml version="1.0" encoding="UTF-8"?>
<svg id="Layer_1" data-name="Layer 1" xmlns="http://www.w3.org/2000/svg" viewBox="0 0 448.02 529.76">
  <defs>
    <style>
      .cls-1 {
        fill: #602671;
        stroke: #231f20;
        stroke-miterlimit: 10;
        stroke-width: 3px;
      }
    </style>
  </defs>
  <path class="cls-1" d="M298.25,320.9c-.24-.21-3.71-2.15-4.11-2.18-1.9-.11-4.44,1.73-6.54,2.01-1.63.21-3.35-.13-4.95.05-7.82.88-14.97,1.5-22.9.6-3.82,2.62-7.11,6.56-10.62,9.37-3.01,2.41-6.46,3.6-8.94,6.55-3.94,4.68-7.24,11.49-11.31,16.68-7.86,10.02-19.14,23.33-29.53,30.45-7.25,4.98-7.68,5.23-12.67,12.82-6.09,9.28-10.69,19.87-18.54,27.94-4.49,4.62-14.36,9.44-17.18,13.81-1.18,1.83-1.64,4.36-2.67,6.32-1.19,2.27-7.73,9.07-3.78,10.99,6.15,2.99,11.65-3.79,16.47,3.99.78,1.26,2.33,4.44,1.43,5.64s-9.65,4.2-11.99,6c-3.96,3.05-6.05,10.26-11.84,11.15-8.9,1.38-8.1,2.34-15.37,6.13-8.39,4.37-18.81,9.55-28.02,3.84-5.99-3.72-3.42-11.83.35-16.24,10.56-12.32,20.34-19.23,27.41-34.82,8.31-18.32,14.65-36.95,24.72-54.74,7.57-13.37,18.25-17.97,27.95-28.53,8.78-9.55,18.12-21.94,22.98-33.99,2.62-6.5,4.31-14.66,7.66-20.82,2.72-5,7.51-10.17,10.5-15.48,4.26-7.56,5.31-13.94,8.09-21.9,2.08-5.97,4.84-11.76,6.66-17.83.93-3.12,1.24-6.98,2.32-10.17.79-2.34,4.25-7.9,4.42-9.58.07-.65-2.44-9.18-2.86-10.41-.27-.77-.78-2.12-1.53-2.47-1.49-.71-10.62-.44-13.21-.79-2.74-.37-4.7-2.44-6.66-2.84s-4.02.16-5.86-.14c-1.41-.23-2.19-1.58-3.41-1.41-1.9.27-5.38,5.58-7.41,7.14-1.89,1.45-9.11,4.68-9.46,6.54-.16.87.12,1.91-.1,2.9-.84,3.8-7.82,4.95-7.21,7.35.86,3.36,7.91-.35,8.58,2.95.62,3.08-6.62,5.88-9,6.05-4.7.34-7.57-2.43-9.28-6.51-1.97,1.74-3.52.33-5.61.59-5.23.67-11.18,6.43-16.56,2.33-1.17-.89-1.23-2.29-2.32-2.92l-.62,2.38c-1.09,1.15-2.75.03-2.88.12-.11.08-.07,1.56-.84,2.04-4.99,3.18-12.68-.35-16.63-3.83-6.81-6.01,3.31-14.68.59-21.08-.3-.71-.12-.75-1.12-.62-2.8,5.44-4.37,11.38-6.76,16.98-3.88,9.09-7.24,19.25-11.15,27.83-1.86,4.07-4.83,8.13-6.85,12.14-6.68,13.2-12.64,26.85-18.64,40.33-12.42,27.86-25.28,55.44-36.85,83.59-8.89,21.63-18.33,40.39-30.95,60-1.84,2.85-3.83,9.21-8.43,7.86-1.86-.55-2.91-5.44-3.23-7.27-2.15-12.1,2.84-25.55,7.79-36.44,8.1-17.83,16.6-35.63,24.33-53.63,3.56-8.3,5.49-17.36,8.87-25.61,2.68-6.53,6.07-12.57,8.61-19.37,10.96-29.38,25.49-57.1,38-85.93,3.12-7.18,5.48-15.27,8.68-22.31,1.69-3.72,6.18-9.45,6.11-13.42-.02-1.26-.93-2.01-1-3-.09-1.18.68-3.47.98-4.72-3.1.35-8.84-4.23-8.93-7.23-.06-1.96,1.61-3.74,1.85-5.14.15-.89-.34-1.66-.25-2.3.46-3.59,5.78-6.22,7.34-9.57-1.65-5.19-5.16-8.21-3.89-14.37,1.39-6.73,11.64-14.6,14.82-21.66,2.64-5.86-.25-13.73,3.05-20.93,2.62-5.72,11.28-9.79,11.98-16.05.75-6.63.85-5.11,3.13-10.82,1.35-3.38.19-4.18.38-7.09.43-6.31,4.31-5.41-3.79-9.69-3.98-2.11-13.66-6.99-17.66-7.83-9.87-2.09-12.24,9.99-18.29,9.73-2.56-.11-5.74-7.36-5.61-9.57.2-3.65,5.71-9.16,9.03-10.47,6.62-2.6,21.41.95,27.1,5.1,1.99,1.45,9.24,8.71,10.99,8.8,4.72.23,7.27-10.65,9.55-14.25,2.76-4.36,10.18-13,15.19-14.3,1.46-.38,2.79-.06,4.16-.34,3.94-.81,7.07-4.47,12.62-4.29,1.25.04,2.87,1.07,3.89.82,1.21-.29,5.52-6.1,7.67-7.34,2.63-1.52,5.72-1.7,8.67-2.08.18-.19-.43-4.43-.61-5.12-.31-1.17-1.26-1.66-1.42-3.11-.45-4.11,2.31-10.35,6.53-11.55,1.38-.39,2.1.33,3.15.2.96-.12,2.26-1.21,3.66-1.37,4.87-.54,9.48,4.03,11.08,8.32.39,1.05,1.94,6.16,2.02,7.01.43,4.81-8.58,7.42-9.66,9.61-.42.85-.5,3.29.51,3.5.86.18,4.89-4.71,7.04-4.98,4.15-.53,5.64,3.9,6.45,3.9,1.53-.86,2.75-2.59,4.53-2.88,3.18-.52,5.57,1.51,8.37.87,1.55-.35,2.8-2.39,4.72-2.78,5.78-1.16,8.16-.17,14.32-3.17s7.25-3.58,13.82-5.68c4.54-1.45,6.45-4.53,11.65-1.67,14.17,7.8,16.71,17.17,11.99,32.29-1.65,5.28-4.22,5.66-7.41,9.08-3.83,4.1-7.8,10.16-10.32,15.17-.92,1.83-4.67,9.78-4.85,11.2-.17,1.34,1.51,2.93.59,6.52-1.05,4.08-2.28,8.12-2.54,12.46-.11,1.79.15,10.28.49,11.76.71,3.17,11.78,12.76,14.65,15.84,6.46,6.92,18.34,18.55,20.52,27.46,1.73,7.07,1.64,15.57,3.44,22.54,2.46,9.51,7.72,19.66,11.02,28.96,2.76,7.79,4.09,16.33,6.88,24.11,1.49,4.16,4.4,8.78,5.63,12.86,2.26,7.48,2.96,15.73,5.37,23.61.39,1.28,1.5,2.53,1.77,3.73.66,2.98.13,6.58,1.14,9.85,3.66,11.83,7.4,27.55,8.41,40.06.38,4.74-1.16,8.98-.95,13.44.34,7.22,2.86,19.22,5.49,25.99s6.46,6.32,6.52,15.96c.03,4.99-1.43,13.63,1.09,17.91,2.78,4.73,4.25,6.01,6.17,11.82,5.14,15.5,5.23,31.82,10.61,47.36,3.15,9.1,7.48,21.16,13.89,28.09,6.45,4.98,7.8-.17,13.54-.96,4.26-.59,9.13.16,13.61-.88,6.75-1.57,12.19-10.22,19.96-11.53,5.41-.91,7.49,4.26,5.57,8.56-7.05,15.83-8.78,27.58-25.59,36.88-5.61,3.11-10.33,3.57-15.69,5.81-3.43,1.44-5.4,4.4-8.31,5.68-7.79,3.43-22.73,4.29-30.53.83-3.13-1.39-5.92-3.85-6.7-7.31s5.01-12.07,5.76-16.47c1.93-11.4-2.99-17.78-7.47-27.27-3.25-6.89-8.03-19.23-12.65-24.83-3.88-4.69-9.61-10.31-11.64-16.34-2.23-6.62-1.73-14.12-2.65-20.83-1.92-14.08-11.04-25.41-16.99-37.99-.85-11.33-3.51-19.53-6.99-29.99-1.1-3.32-6.95-23.08-8.12-24.12Z"/>
</svg>