<?xml version="1.0" encoding="utf-8"?>
<!-- Generator: Adobe Illustrator 18.0.0, SVG Export Plug-In . SVG Version: 6.00 Build 0)  -->
<!DOCTYPE svg PUBLIC "-//W3C//DTD SVG 1.1//EN" "http://www.w3.org/Graphics/SVG/1.1/DTD/svg11.dtd">
<svg version="1.1" id="Layer_1" xmlns="http://www.w3.org/2000/svg" xmlns:xlink="http://www.w3.org/1999/xlink" x="0px" y="0px"
	 viewBox="0 0 792 612" enable-background="new 0 0 792 612" xml:space="preserve">
<line fill="none" stroke="#010202" stroke-width="40" stroke-miterlimit="10" x1="86.6" y1="515.7" x2="587.2" y2="94.2"/>
<g>
	<g>
		<path fill="#010202" d="M631.6,150.2h-88.8c-7.2,0-13.1-5.9-13.1-13.1V51.4c0-7.2,5.9-13.1,13.1-13.1h88.8
			c7.2,0,13.1,5.9,13.1,13.1v85.8C644.7,144.4,638.8,150.2,631.6,150.2z"/>
		<rect x="567.7" y="74.8" fill="#FFFFFF" width="39" height="39"/>
	</g>
	<g>
		<path fill="#010202" d="M132.6,572.2H43.8c-7.2,0-13.1-5.9-13.1-13.1v-85.8c0-7.2,5.9-13.1,13.1-13.1h88.8
			c7.2,0,13.1,5.9,13.1,13.1v85.8C145.7,566.4,139.8,572.2,132.6,572.2z"/>
		<rect x="68.7" y="496.8" fill="#FFFFFF" width="39" height="39"/>
	</g>
</g>
</svg>
