<svg xmlns="http://www.w3.org/2000/svg" viewBox="0 0 640 512">
  <!-- Network server chassis -->
  <rect x="176" y="48" width="440" height="176" rx="16" ry="16" fill="none" stroke="currentColor" stroke-width="24"/>
  <circle cx="224" cy="124" r="14" fill="currentColor"/>
  <circle cx="272" cy="124" r="14" fill="currentColor"/>
  <rect x="340" y="104" width="240" height="12" fill="currentColor"/>
  <rect x="340" y="128" width="240" height="12" fill="currentColor"/>
  <rect x="340" y="152" width="240" height="12" fill="currentColor"/>

  <rect x="176" y="272" width="440" height="176" rx="16" ry="16" fill="none" stroke="currentColor" stroke-width="24"/>
  <circle cx="224" cy="348" r="14" fill="currentColor"/>
  <circle cx="272" cy="348" r="14" fill="currentColor"/>
  <rect x="340" y="328" width="240" height="12" fill="currentColor"/>
  <rect x="340" y="352" width="240" height="12" fill="currentColor"/>
  <rect x="340" y="376" width="240" height="12" fill="currentColor"/>

  <!-- Ingress arrow: points right, into the server -->
  <path d="M16 232 L128 232 L128 196 L200 256 L128 316 L128 280 L16 280 Z" fill="currentColor"/>
</svg>
