<?xml version="1.0" encoding="UTF-8"?>
<svg id="Layer_1" data-name="Layer 1" xmlns="http://www.w3.org/2000/svg" viewBox="0 0 514.19 263.37">
  <defs>
    <style>
      .cls-1 {
        fill: #602671;
      }
    </style>
  </defs>
  <g id="boy">
    <path class="cls-1" d="M148.37,159.69c-.12-.11-1.85-1.08-2.06-1.09-.95-.06-2.22.87-3.27,1-.82.11-1.67-.07-2.48.02-3.91.44-7.48.75-11.45.3-1.91,1.31-3.55,3.28-5.31,4.69-1.5,1.2-3.23,1.8-4.47,3.28-1.97,2.34-3.62,5.75-5.65,8.34-3.93,5.01-9.57,11.66-14.76,15.23-3.63,2.49-3.84,2.62-6.33,6.41-3.05,4.64-5.34,9.93-9.27,13.97-2.24,2.31-7.18,4.72-8.59,6.91-.59.91-.82,2.18-1.34,3.16-.59,1.14-3.86,4.53-1.89,5.49,3.07,1.5,5.82-1.9,8.24,1.99.39.63,1.17,2.22.72,2.82s-4.83,2.1-6,3c-1.98,1.52-3.02,5.13-5.92,5.58-4.45.69-4.05,1.17-7.68,3.06-4.19,2.19-9.4,4.77-14.01,1.92-3-1.86-1.71-5.92.18-8.12,5.28-6.16,10.17-9.62,13.7-17.41,4.15-9.16,7.32-18.48,12.36-27.37,3.78-6.69,9.12-8.99,13.98-14.26,4.39-4.78,9.06-10.97,11.49-17,1.31-3.25,2.15-7.33,3.83-10.41,1.36-2.5,3.76-5.09,5.25-7.74,2.13-3.78,2.66-6.97,4.04-10.95,1.04-2.99,2.42-5.88,3.33-8.91.47-1.56.62-3.49,1.16-5.08.4-1.17,2.12-3.95,2.21-4.79.03-.32-1.22-4.59-1.43-5.2-.14-.39-.39-1.06-.76-1.24-.75-.36-5.31-.22-6.6-.4-1.37-.18-2.35-1.22-3.33-1.42s-2.01.08-2.93-.07c-.7-.12-1.1-.79-1.7-.7-.95.14-2.69,2.79-3.7,3.57-.94.72-4.56,2.34-4.73,3.27-.08.44.06.95-.05,1.45-.42,1.9-3.91,2.48-3.6,3.68.43,1.68,3.95-.18,4.29,1.47.31,1.54-3.31,2.94-4.5,3.03-2.35.17-3.79-1.21-4.64-3.26-.99.87-1.76.16-2.8.3-2.62.33-5.59,3.21-8.28,1.17-.59-.45-.62-1.15-1.16-1.46l-.31,1.19c-.55.57-1.38.01-1.44.06-.05.04-.04.78-.42,1.02-2.5,1.59-6.34-.18-8.31-1.91-3.4-3,1.66-7.34.29-10.54-.15-.35-.06-.38-.56-.31-1.4,2.72-2.18,5.69-3.38,8.49-1.94,4.54-3.62,9.62-5.58,13.91-.93,2.04-2.41,4.07-3.43,6.07-3.34,6.6-6.32,13.42-9.32,20.16-6.21,13.93-12.64,27.72-18.43,41.79-4.45,10.81-9.17,20.19-15.48,30-.92,1.43-1.91,4.61-4.22,3.93-.93-.27-1.46-2.72-1.62-3.64-1.07-6.05,1.42-12.78,3.89-18.22,4.05-8.91,8.3-17.81,12.17-26.81,1.78-4.15,2.74-8.68,4.44-12.8,1.34-3.26,3.04-6.28,4.31-9.69,5.48-14.69,12.75-28.55,19-42.97,1.56-3.59,2.74-7.64,4.34-11.15.85-1.86,3.09-4.72,3.05-6.71,0-.63-.46-1-.5-1.5-.04-.59.34-1.73.49-2.36-1.55.18-4.42-2.12-4.47-3.62-.03-.98.8-1.87.93-2.57.08-.44-.17-.83-.13-1.15.23-1.8,2.89-3.11,3.67-4.79-.83-2.6-2.58-4.11-1.95-7.18.69-3.37,5.82-7.3,7.41-10.83,1.32-2.93-.13-6.87,1.53-10.47,1.31-2.86,5.64-4.89,5.99-8.03.37-3.31.43-2.56,1.57-5.41.67-1.69.09-2.09.19-3.54.21-3.16,2.16-2.7-1.9-4.85-1.99-1.05-6.83-3.49-8.83-3.92-4.93-1.04-6.12,5-9.15,4.86-1.28-.06-2.87-3.68-2.81-4.79.1-1.82,2.85-4.58,4.51-5.23,3.31-1.3,10.71.48,13.55,2.55,1,.73,4.62,4.36,5.5,4.4,2.36.12,3.64-5.33,4.78-7.12,1.38-2.18,5.09-6.5,7.59-7.15.73-.19,1.39-.03,2.08-.17,1.97-.41,3.54-2.24,6.31-2.14.62.02,1.43.53,1.95.41.61-.14,2.76-3.05,3.83-3.67,1.31-.76,2.86-.85,4.33-1.04.09-.09-.21-2.21-.3-2.56-.15-.59-.63-.83-.71-1.55-.22-2.06,1.16-5.18,3.26-5.77.69-.2,1.05.16,1.57.1.48-.06,1.13-.61,1.83-.68,2.43-.27,4.74,2.02,5.54,4.16.2.53.97,3.08,1.01,3.51.22,2.41-4.29,3.71-4.83,4.81-.21.42-.25,1.64.25,1.75.43.09,2.44-2.36,3.52-2.49,2.07-.26,2.82,1.95,3.23,1.95.77-.43,1.37-1.29,2.27-1.44,1.59-.26,2.78.75,4.18.43.78-.18,1.4-1.2,2.36-1.39,2.89-.58,4.08-.09,7.16-1.59s3.62-1.79,6.91-2.84c2.27-.73,3.23-2.26,5.83-.83,7.08,3.9,8.35,8.58,6,16.14-.82,2.64-2.11,2.83-3.71,4.54-1.92,2.05-3.9,5.08-5.16,7.59-.46.92-2.33,4.89-2.42,5.6-.09.67.75,1.47.29,3.26-.52,2.04-1.14,4.06-1.27,6.23-.05.9.08,5.14.24,5.88.36,1.59,5.89,6.38,7.33,7.92,3.23,3.46,9.17,9.27,10.26,13.73.86,3.53.82,7.79,1.72,11.27,1.23,4.75,3.86,9.83,5.51,14.48,1.38,3.9,2.05,8.17,3.44,12.05.74,2.08,2.2,4.39,2.81,6.43,1.13,3.74,1.48,7.87,2.69,11.8.2.64.75,1.27.88,1.86.33,1.49.06,3.29.57,4.93,1.83,5.91,3.7,13.78,4.2,20.03.19,2.37-.58,4.49-.48,6.72.17,3.61,1.43,9.61,2.75,12.99s3.23,3.16,3.26,7.98c.02,2.49-.71,6.82.54,8.95,1.39,2.37,2.12,3.01,3.09,5.91,2.57,7.75,2.61,15.91,5.3,23.68,1.58,4.55,3.74,10.58,6.94,14.05,3.22,2.49,3.9-.08,6.77-.48,2.13-.29,4.57.08,6.81-.44,3.37-.78,6.09-5.11,9.98-5.76,2.7-.46,3.74,2.13,2.78,4.28-3.53,7.91-4.39,13.79-12.79,18.44-2.8,1.55-5.17,1.78-7.84,2.9-1.71.72-2.7,2.2-4.16,2.84-3.9,1.72-11.36,2.14-15.26.41-1.57-.69-2.96-1.92-3.35-3.66s2.51-6.04,2.88-8.23c.97-5.7-1.5-8.89-3.74-13.64-1.62-3.44-4.01-9.62-6.33-12.41-1.94-2.34-4.81-5.16-5.82-8.17-1.12-3.31-.87-7.06-1.33-10.42-.96-7.04-5.52-12.71-8.49-18.99-.43-5.67-1.76-9.76-3.49-14.99-.55-1.66-3.48-11.54-4.06-12.06h.03Z"/>
  </g>
  <g id="vorpal">
    <g>
      <path class="cls-1" d="M227.56,87.8c-1.55.37-3.05,1.27-4.51,2.69-1.46,1.43-2.67,3.64-3.63,6.66-2.4,7.71-4.76,15.49-7.08,23.33-2.32,7.84-4.59,15.44-6.82,22.78-.69,2.22-1.47,5.07-2.34,8.56s-1.61,6.66-2.19,9.51h-9.48c-3.95-14.1-7.32-25.8-10.12-35.1-2.8-9.3-5.76-19.28-8.88-29.95-.72-2.48-1.85-4.44-3.37-5.86-1.53-1.43-3.08-2.3-4.66-2.61v-5.78h31.72v5.78c-1.17.05-2.54.45-4.12,1.19s-2.37,1.69-2.37,2.85c0,.32.07.79.21,1.43.14.63.31,1.35.51,2.14,1.1,4.01,2.76,9.79,4.98,17.34s4.57,15.49,7.05,23.84c1.71-5.75,3.35-11.39,4.91-16.91s3.49-12.55,5.78-21.1c.31-1.27.49-2.3.54-3.09s.08-1.32.08-1.58c0-.95-.3-1.78-.9-2.5-.6-.71-1.32-1.33-2.14-1.86-.86-.53-1.69-.92-2.48-1.19-.79-.26-1.45-.45-1.96-.55v-5.78h21.27v5.78-.02Z"/>
      <path class="cls-1" d="M281.22,91.36c2.54,3.64,4.48,8,5.82,13.07,1.34,5.07,2.01,10.56,2.01,16.48s-.66,11.4-1.98,16.6-3.25,9.65-5.79,13.35c-2.71,3.96-5.95,7-9.71,9.11-3.76,2.11-8.06,3.17-12.9,3.17-4.19,0-8.04-.92-11.56-2.77s-6.63-4.62-9.35-8.32c-2.61-3.54-4.67-7.91-6.18-13.11-1.51-5.2-2.27-11.02-2.27-17.47s.66-11.98,1.98-16.92c1.32-4.94,3.3-9.33,5.95-13.19,2.54-3.7,5.67-6.56,9.4-8.6,3.72-2.03,7.89-3.05,12.49-3.05s9.04,1.02,12.69,3.05c3.66,2.03,6.79,4.9,9.4,8.6h0ZM268.04,146.27c.75-2.96,1.31-6.55,1.67-10.78.36-4.23.54-9.14.54-14.74,0-3.7-.17-7.92-.51-12.68-.34-4.75-.86-8.5-1.54-11.25-.82-3.33-1.97-5.94-3.42-7.84-1.46-1.9-3.3-2.85-5.54-2.85-2.44,0-4.39,1.03-5.84,3.09s-2.58,4.73-3.37,8c-.72,3.01-1.22,6.54-1.49,10.58-.28,4.04-.41,8.25-.41,12.64,0,5.76.12,10.52.36,14.3s.82,7.57,1.75,11.37c.79,3.28,1.92,5.86,3.4,7.76,1.48,1.9,3.35,2.85,5.61,2.85,2.06,0,3.83-.88,5.3-2.65,1.48-1.77,2.64-4.37,3.5-7.8h0Z"/>
      <path class="cls-1" d="M346.98,96.51c0,4.01-.81,7.54-2.42,10.58-1.61,3.04-3.74,4.56-6.39,4.56-2.51,0-4.63-.97-6.36-2.92-1.73-1.95-2.6-4.81-2.6-8.6,0-1.84.09-3.27.26-4.3s.33-1.99.46-2.88c-1.58.11-3.24.94-5,2.51-1.75,1.57-3.3,3.66-4.63,6.28v43.5c0,1.85.19,3.38.57,4.6s1.01,2.17,1.9,2.85c.75.58,1.98,1.07,3.68,1.47,1.7.4,2.93.62,3.68.67v5.78h-34.45v-5.78c.86-.11,1.73-.25,2.6-.44.88-.19,1.62-.44,2.24-.75,1.1-.58,1.85-1.48,2.27-2.69.41-1.21.62-2.8.62-4.75v-46.11c0-1.9-.29-3.61-.87-5.11-.58-1.51-1.29-2.71-2.11-3.61-.62-.63-1.4-1.16-2.34-1.58s-1.98-.71-3.12-.87v-5.78l24.56-2.06.77,1.19v11.49h.21c2.37-4.23,4.88-7.54,7.54-9.94,2.66-2.4,5.43-3.6,8.32-3.6,3.19,0,5.76,1.52,7.7,4.56s2.91,6.96,2.91,11.77v-.04Z"/>
      <path class="cls-1" d="M413.26,122.02c0,11.15-2.42,20.71-7.25,28.68-4.83,7.98-10.95,11.96-18.36,11.96-3.29,0-5.97-.51-8.02-1.55-2.06-1.03-3.76-2.28-5.09-3.76h-.41v22.26c0,1.85.27,3.46.8,4.83s1.28,2.38,2.24,3.01c.93.58,2.24,1.11,3.94,1.58,1.7.48,3.12.76,4.25.87v5.86h-37.23v-5.86c.86-.11,1.94-.3,3.24-.59s2.28-.59,2.94-.91c1.1-.58,1.84-1.57,2.24-2.97.39-1.4.59-3,.59-4.79v-81.05c-.1-1.74-.37-3.27-.8-4.6-.43-1.32-1.11-2.48-2.03-3.49-.69-.69-1.6-1.25-2.73-1.7s-2.25-.75-3.35-.91v-5.78l25.13-2.06.77,1.03v8.79l.41.16c2.26-3.54,4.77-6.28,7.53-8.24,2.76-1.95,5.49-2.93,8.2-2.93,7.1,0,12.7,3.87,16.82,11.61,4.11,7.74,6.17,17.92,6.17,30.54h0ZM394.77,122.34c0-3.96-.19-7.75-.56-11.37s-1.04-6.85-2-9.71c-.93-2.85-2.15-5.12-3.67-6.81-1.52-1.69-3.38-2.54-5.57-2.54s-4.01.59-5.34,1.78c-1.34,1.19-2.5,2.73-3.49,4.63v44.92c.21,1.06.6,2.42,1.18,4.08.58,1.66,1.16,3,1.75,4,.86,1.43,1.83,2.48,2.93,3.17s2.29,1.03,3.6,1.03c3.39,0,6.1-2.81,8.14-8.44,2.04-5.63,3.06-13.88,3.06-24.76l-.03.02Z"/>
      <path class="cls-1" d="M478.76,158.94c-1.51,1-3.29,1.93-5.34,2.77-2.06.84-4.23,1.27-6.53,1.27-4.21,0-7.31-.96-9.3-2.89-1.99-1.93-3.34-4.69-4.06-8.28h-.31c-1.17,1.8-2.29,3.33-3.38,4.6-1.08,1.27-2.24,2.35-3.48,3.25-1.62,1.16-3.17,2.03-4.67,2.61s-3.58.87-6.27.87c-3.99,0-7.39-1.81-10.21-5.43s-4.23-8.42-4.23-14.4c0-3.44.31-6.36.93-8.77s1.5-4.54,2.63-6.39c1.03-1.69,2.23-3.09,3.58-4.21,1.36-1.11,2.85-2.14,4.46-3.09,3.1-1.75,6.81-3.56,11.14-5.43,4.33-1.88,7.5-3.56,9.49-5.04v-7.61c0-1.32-.07-3.06-.21-5.23s-.43-3.99-.87-5.47c-.48-1.69-1.24-3.12-2.27-4.28s-2.39-1.74-4.07-1.74c-1.51,0-2.77.33-3.79.99s-1.83,1.33-2.45,2.02c.1,1.06.4,2.67.88,4.83.48,2.17.72,4.25.72,6.26,0,.9-.16,2.02-.47,3.37-.31,1.35-.76,2.42-1.34,3.21-.79,1.06-1.68,1.88-2.66,2.46s-2.49.87-4.52.87c-2.89,0-5.08-1.07-6.56-3.21-1.48-2.14-2.22-4.92-2.22-8.36,0-2.96.76-5.61,2.29-7.96,1.53-2.35,3.39-4.29,5.59-5.82,2.16-1.58,4.65-2.81,7.47-3.68,2.81-.87,5.42-1.31,7.83-1.31,3.33,0,6.39.3,9.17.91,2.78.61,5.29,1.86,7.52,3.76,2.13,1.85,3.82,4.53,5.07,8.04s1.88,8.09,1.88,13.75c0,5.97-.08,13.05-.23,21.23-.15,8.19-.23,13.58-.23,16.16,0,2.38.23,4.25.7,5.63.46,1.37,1.18,2.4,2.14,3.09.58.42,1.5.67,2.76.75,1.25.08,2.39.12,3.42.12v5.78h0ZM453.22,117.67c-1.93,1.01-3.84,2.16-5.74,3.46-1.89,1.3-3.45,2.66-4.65,4.09-1.27,1.48-2.27,3.38-3,5.68-.72,2.3-1.09,5.02-1.09,8.14,0,4.13.61,7.12,1.83,8.98s2.73,2.78,4.52,2.78c1.89,0,3.45-.6,4.68-1.79,1.22-1.19,2.3-2.66,3.23-4.41l.21-26.92h.01Z"/>
      <path class="cls-1" d="M514.19,160.61h-32.44v-5.78c.9-.11,1.77-.24,2.62-.4s1.6-.42,2.26-.79c1.11-.63,1.86-1.55,2.25-2.73.4-1.19.6-2.76.6-4.71V58.41c0-2.01-.27-3.87-.8-5.59-.53-1.72-1.25-3.02-2.14-3.92-.69-.69-1.73-1.35-3.12-1.98-1.39-.63-2.62-1-3.68-1.11v-5.78l25.95-2.06.77,1.27v105.93c0,1.95.22,3.54.67,4.75.45,1.22,1.18,2.17,2.18,2.85.69.48,1.42.9,2.18,1.27s1.66.63,2.7.79v5.78Z"/>
    </g>
  </g>
</svg>