<svg xmlns="http://www.w3.org/2000/svg" viewBox="0 0 32 32" width="32" height="32">
  <!-- Open book — API reference / Javadoc. -->
  <g fill="none" stroke="#602671" stroke-width="2" stroke-linecap="round" stroke-linejoin="round">
    <path d="M16 7C12.5 4.5 7 4 3 5.5V25c4-1.5 9.5-1 13 1.5 3.5-2.5 9-3 13-1.5V5.5C25 4 19.5 4.5 16 7Z"/>
    <path d="M16 7v19.5"/>
    <path d="M6.5 10.5c2-.4 4.5-.3 6.5.4 M6.5 14.5c2-.4 4.5-.3 6.5.4"/>
    <path d="M25.5 10.5c-2-.4-4.5-.3-6.5.4 M25.5 14.5c-2-.4-4.5-.3-6.5.4"/>
  </g>
</svg>
