<?xml version="1.0" encoding="utf-8"?>
<!-- Generator: Adobe Illustrator 18.0.0, SVG Export Plug-In . SVG Version: 6.00 Build 0)  -->
<!DOCTYPE svg PUBLIC "-//W3C//DTD SVG 1.1//EN" "http://www.w3.org/Graphics/SVG/1.1/DTD/svg11.dtd">
<svg version="1.1" id="Layer_1" xmlns="http://www.w3.org/2000/svg" xmlns:xlink="http://www.w3.org/1999/xlink" x="0px" y="0px"
	 viewBox="0 0 792 612" enable-background="new 0 0 792 612" xml:space="preserve">
<polyline fill="none" stroke="#010202" stroke-width="40" stroke-miterlimit="10" points="645.4,93.6 398.2,93.6 398.2,517.2 
	146.2,517.2 "/>
<g>
	<g>
		<path fill="#010202" d="M689.6,151.2h-88.8c-7.2,0-13.1-5.9-13.1-13.1V52.4c0-7.2,5.9-13.1,13.1-13.1h88.8
			c7.2,0,13.1,5.9,13.1,13.1v85.8C702.7,145.4,696.8,151.2,689.6,151.2z"/>
		<rect x="625.7" y="75.8" fill="#FFFFFF" width="39" height="39"/>
	</g>
	<g>
		<path fill="#010202" d="M190.6,573.2h-88.8c-7.2,0-13.1-5.9-13.1-13.1v-85.8c0-7.2,5.9-13.1,13.1-13.1h88.8
			c7.2,0,13.1,5.9,13.1,13.1v85.8C203.7,567.4,197.8,573.2,190.6,573.2z"/>
		<rect x="126.7" y="497.8" fill="#FFFFFF" width="39" height="39"/>
	</g>
</g>
</svg>
